# xmcd CD database file
#
# Track frame offsets:
#	150
#	17610
#	39935
#	60937
#	77895
#	93747
#	110095
#	130942
#	154793
#	171680
#	190756
#	206063
#
# Disc length: 3013 seconds
#
# Revision: 0
# Processed by: cddbd v1.5.2PL0 Copyright (c) Steve Scherf et al.
# Submitted via: CDex 1.70beta2
#
DISCID=a10bc30c
DTITLE=Annekei+Jack Lee - Letter
DYEAR=1900
DGENRE=Jazz
TTITLE0=I Miss You More
TTITLE1=Letter
TTITLE2=lately
TTITLE3=Paper Moon
TTITLE4=Agnus de Marco
TTITLE5=Felicidade
TTITLE6=My  Mystery
TTITLE7=Fragile
TTITLE8=How Deep is Your Love
TTITLE9=Um Sohhador
TTITLE10=Besame Mucho
TTITLE11=Llorando
EXTD=
EXTT0=
EXTT1=
EXTT2=
EXTT3=
EXTT4=
EXTT5=
EXTT6=
EXTT7=
EXTT8=
EXTT9=
EXTT10=
EXTT11=
PLAYORDER=
